<?xml version="1.0" encoding="UTF-8" standalone="no"?>
<svg
   xmlns:dc="http://purl.org/dc/elements/1.1/"
   xmlns:cc="http://creativecommons.org/ns#"
   xmlns:rdf="http://www.w3.org/1999/02/22-rdf-syntax-ns#"
   xmlns:svg="http://www.w3.org/2000/svg"
   xmlns="http://www.w3.org/2000/svg"
   id="svg4254"
   version="1.1"
   width="2184.5334"
   height="2184.5334"
   viewBox="0 0 2048 2048">
  <metadata
     id="metadata4260">
    <rdf:RDF>
      <cc:Work
         rdf:about="">
        <dc:format>image/svg+xml</dc:format>
        <dc:type
           rdf:resource="http://purl.org/dc/dcmitype/StillImage" />
        <dc:title></dc:title>
      </cc:Work>
    </rdf:RDF>
  </metadata>
  <defs
     id="defs4258" />
  <path
     style="fill:#00ff00;fill-opacity:1"
     d="m 981.5,1768.3736 c -2.75,-0.2077 -13.325,-1.0686 -23.5,-1.913 -145.50391,-12.0756 -287.17745,-69.0575 -402.49997,-161.8877 -28.7588,-23.1497 -68.1435,-61.3138 -92.7762,-89.9009 -15.9522,-18.5131 -17.7294,-22.0206 -17.7141,-34.9595 0.017,-14.6433 -3.6883,-10.2347 74.6094,-88.7604 78.6101,-78.8391 73.3729,-74.4521 88.8809,-74.4521 7.8464,0 9.7355,0.3612 14.7382,2.8178 4.864,2.3885 7.1717,4.6035 15.1457,14.5376 44.78661,55.7954 95.5604,97.8877 156.95351,130.1173 48.48655,25.4539 100.16432,42.323 156.16256,50.9757 39.08076,6.0386 93.6596,6.6382 134.5,1.4775 95.5335,-12.0719 189.7992,-54.3495 263.6567,-118.2483 90.4627,-78.2649 151.4721,-192.303 166.7484,-311.6839 4.1367,-32.3275 4.6762,-85.7658 1.1658,-115.4937 -7.4579,-63.1589 -24.331,-118.2099 -53.4843,-174.5 C 1420.6982,712.72428 1359.0334,647.17846 1278,598.7016 c -16.491,-9.86544 -53.8271,-28.20647 -72.5,-35.61495 -46.1228,-18.29924 -88.9703,-28.42503 -140.5,-33.20318 -17.0991,-1.58553 -64.4559,-1.60549 -81.5,-0.0344 -66.14492,6.09729 -125.70526,22.96095 -182.41309,51.64764 -39.903,20.18567 -71.71525,42.10746 -108.43735,74.72407 l -4.85044,4.30816 69.52629,70.08704 c 47.33028,47.71202 70.83166,72.10672 73.6152,76.41342 9.93222,15.367 11.25594,33.0462 3.90689,52.1791 -7.888,20.536 -21.95776,34.1269 -40.8475,39.4573 -6.21797,1.7546 -16.41449,1.8342 -234.99997,1.8342 h -228.5 l -7.8279,-2.7691 c -16.9907,-6.0104 -31.9863,-19.6336 -38.6032,-35.0702 -5.3643,-12.5143 -5.1483,-1.5492 -4.8472,-246.16074 l 0.2783,-226 2.6418,-7.74394 c 1.4531,-4.25917 4.0751,-9.97738 5.8268,-12.70712 7.4235,-11.56863 22.5183,-22.0796 39.0314,-27.17889 9.4772,-2.92661 23.7621,-3.21526 32,-0.64661 12.8,3.99117 15.8288,6.59157 69,59.24143 27.775,27.50267 57.9443,57.33867 67.043,66.30222 l 16.543,16.29737 9.457,-8.64939 C 620.63293,384.33007 746.91209,320.25197 879.5,293.52244 c 137.7882,-27.77791 283.747,-15.06094 413,35.98349 33.4023,13.1912 79.2318,35.41166 109.5,53.09113 143.1373,83.60567 249.5335,207.6355 314.3107,366.40295 57.7217,141.47479 68.9468,302.65999 31.5823,453.49999 -20.5087,82.7932 -58.3949,167.3875 -107.9337,241 -79.999,118.8752 -192.1411,210.161 -329.4593,268.1859 -70.4452,29.7672 -138.5833,46.847 -219,54.8954 -15.1059,1.5119 -96.21549,2.8334 -110,1.7923 z"
     id="path7" />
</svg>
